<?xml version="1.0" standalone="no"?>
<!DOCTYPE svg PUBLIC "-//W3C//DTD SVG 20010904//EN"
 "http://www.w3.org/TR/2001/REC-SVG-20010904/DTD/svg10.dtd">
<svg version="1.0" xmlns="http://www.w3.org/2000/svg"
 width="800.000000pt" height="800.000000pt" viewBox="0 0 800.000000 800.000000"
 preserveAspectRatio="xMidYMid meet">

<g transform="translate(0.000000,800.000000) scale(0.100000,-0.100000)"
fill="#f0f401" stroke="f0f401">
<path d="M3886 7154 c-146 -35 -258 -133 -343 -300 -28 -55 -194 -418 -368
-809 -174 -390 -320 -713 -324 -717 -3 -4 -371 -46 -816 -93 -446 -46 -846
-92 -890 -100 -164 -32 -293 -121 -362 -251 -103 -192 -80 -387 66 -562 28
-33 326 -308 663 -612 337 -303 617 -557 622 -564 5 -8 -46 -270 -139 -707
-81 -382 -160 -759 -176 -839 -56 -283 -31 -423 103 -566 132 -140 329 -189
511 -125 93 32 159 69 883 487 l684 395 683 -395 c723 -417 791 -454 884 -487
182 -64 379 -15 511 125 129 139 159 284 108 541 -13 66 -92 444 -176 839 -96
453 -149 724 -144 732 5 8 286 263 625 567 339 305 637 581 663 613 143 175
165 367 63 558 -61 116 -175 203 -312 239 -83 22 -118 26 -985 117 -420 44
-767 84 -771 88 -4 4 -150 327 -324 717 -174 391 -339 753 -366 807 -67 130
-144 214 -241 261 -118 57 -215 69 -332 41z m389 -1516 c147 -332 286 -639
308 -682 83 -162 204 -252 377 -281 47 -8 366 -44 710 -80 344 -35 646 -67
672 -71 l47 -6 -547 -493 c-611 -551 -620 -561 -658 -722 -11 -47 -14 -88 -9
-133 6 -55 286 -1409 300 -1448 6 -16 56 -44 -615 343 -316 183 -597 344 -625
357 -153 78 -317 78 -470 1 -27 -14 -309 -175 -625 -358 -671 -387 -621 -359
-615 -343 11 33 294 1390 300 1440 12 102 -20 219 -88 322 -20 30 -232 228
-579 541 l-547 493 47 6 c26 4 328 36 672 71 344 36 662 72 708 79 173 30 292
117 374 273 25 48 166 359 313 691 147 331 271 602 275 602 4 0 127 -271 275
-602z"/>
</g>
</svg>
